<?xml version="1.0" standalone="no"?>
<!DOCTYPE svg PUBLIC "-//W3C//DTD SVG 20010904//EN"
 "http://www.w3.org/TR/2001/REC-SVG-20010904/DTD/svg10.dtd">
<svg version="1.0" xmlns="http://www.w3.org/2000/svg"
 width="260.000000pt" height="260.000000pt" viewBox="0 0 260.000000 260.000000"
 preserveAspectRatio="xMidYMid meet">
<metadata>
Created by potrace 1.11, written by Peter Selinger 2001-2013
</metadata>
<g transform="translate(0.000000,260.000000) scale(0.100000,-0.100000)"
fill="#000000" stroke="none">
<path d="M1411 2403 c-38 -19 -82 -75 -112 -143 -51 -114 -95 -361 -106 -587
-3 -79 -7 -143 -7 -143 -1 0 -28 9 -60 21 -299 104 -594 -16 -622 -253 -15
-126 34 -247 140 -354 110 -110 267 -185 448 -214 108 -18 322 -8 413 18 38
11 71 19 73 17 2 -1 -17 -45 -41 -97 -131 -281 -313 -436 -559 -477 l-53 -9
68 -1 c37 0 100 6 140 15 237 53 396 227 487 533 19 66 22 70 84 110 125 81
226 222 226 317 0 59 -29 114 -61 114 -18 0 -20 4 -14 33 19 87 94 197 145
210 29 8 60 -25 60 -64 0 -28 -2 -31 -24 -25 -32 8 -46 -28 -22 -52 20 -21 43
-9 70 37 22 38 16 89 -17 126 -32 37 -78 25 -138 -35 -48 -48 -72 -102 -85
-192 -3 -27 -10 -48 -14 -48 -5 0 -23 -12 -40 -26 -36 -31 -85 -124 -125 -236
-15 -43 -33 -82 -39 -87 -6 -5 -51 -23 -100 -40 -240 -85 -536 -82 -697 6 -65
35 -134 110 -166 179 -32 70 -43 199 -23 270 18 65 79 125 153 153 80 29 218
29 313 0 38 -12 70 -22 71 -23 2 -1 7 -63 12 -137 11 -149 31 -222 67 -246 22
-14 26 -14 48 0 37 24 68 100 74 177 6 88 -18 141 -95 210 l-56 49 17 168 c36
362 106 579 204 637 31 18 36 18 67 3 93 -44 142 -344 133 -816 -3 -211 -3
-228 8 -161 26 155 37 419 25 581 -29 398 -118 557 -270 482z m-123 -1019 c51
-43 72 -81 72 -129 0 -71 -44 -134 -84 -119 -31 12 -46 68 -46 178 0 58 4 106
8 106 5 0 27 -16 50 -36z m600 -196 c28 -28 5 -84 -64 -151 -43 -42 -132 -102
-139 -95 -7 6 27 104 53 153 39 77 118 125 150 93z"/>
</g>
</svg>
